# xmcd
#
# Track frame offsets:
#	150
#	13000
#	26570
#	39301
#	52128
#	64110
#	76769
#	89218
#	101481
#	113728
#	126541
#	138731
#	151941
#	166405
#	181674
#	194280
#	207973
#	221425
#	234752
#	249210
#	263193
#	278540
#	291743
#	304317
#	315994
#	327265
#
# Disc length: 4534 seconds
#
# Revision: 1
# Processed by: cddbd v1.5.2PL0 Copyright (c) Steve Scherf et al.
# Submitted via: audiograbber 1.83.01
#
DISCID=7211b41a
DTITLE=Sonny Boy Williamson (I) - The Original Sonny Boy Williamson 1942-1947 -
DTITLE=Cd C
DYEAR=2008
DGENRE=Blues
TTITLE0=SONNY BOY WILLIAMSON - What's Gettin' Wrong with You
TTITLE1=SONNY BOY WILLIAMSON - Blues That Made Me Drunk
TTITLE2=SONNY BOY WILLIAMSON - Come On Baby and Take a Walk
TTITLE3=SONNY BOY WILLIAMSON - Miss Stella Brown Blues
TTITLE4=SONNY BOY WILLIAMSON - Desperado Woman Blues
TTITLE5=SONNY BOY WILLIAMSON - Win the War Blues
TTITLE6=SONNY BOY WILLIAMSON - Check Up on My Baby Blues
TTITLE7=SONNY BOY WILLIAMSON - G.M. and O. Blues
TTITLE8=SONNY BOY WILLIAMSON - We Got to Win
TTITLE9=SONNY BOY WILLIAMSON - Sonny Boy's Jump
TTITLE10=SONNY BOY WILLIAMSON - Elevator Woman
TTITLE11=BIG JOE WILLIAMS - Drop Down Blues
TTITLE12=BIG JOE WILLIAMS - Somebody's Been Worryin'
TTITLE13=BIG JOE WILLIAMS - Wanita
TTITLE14=BIG JOE WILLIAMS - Vitamin A
TTITLE15=SONNY BOY WILLIAMSON - Early in the Morning
TTITLE16=SONNY BOY WILLIAMSON - The Big Boat
TTITLE17=SONNY BOY WILLIAMSON - Stop Breaking Down
TTITLE18=SONNY BOY WILLIAMSON - You're An Old Lady
TTITLE19=SONNY BOY WILLIAMSON - Sonny Boy's Cold Chills
TTITLE20=SONNY BOY WILLIAMSON - Mean Old Highway
TTITLE21=SONNY BOY WILLIAMSON - Hoodoo Hoodoo
TTITLE22=SONNY BOY WILLIAMSON - Shake the Boogie
TTITLE23=SONNY BOY WILLIAMSON - Mellow Chick Swing
TTITLE24=SONNY BOY WILLIAMSON - Polly Put Your Kettle On
TTITLE25=SONNY BOY WILLIAMSON - Lacey Belle
EXTD=with Big Joe Williams
EXTT0=
EXTT1=
EXTT2=
EXTT3=
EXTT4=
EXTT5=
EXTT6=
EXTT7=
EXTT8=
EXTT9=
EXTT10=
EXTT11=
EXTT12=
EXTT13=
EXTT14=
EXTT15=
EXTT16=
EXTT17=
EXTT18=
EXTT19=
EXTT20=
EXTT21=
EXTT22=
EXTT23=
EXTT24=
EXTT25=
PLAYORDER=
